<mxfile host="app.diagrams.net" modified="2023-04-13T20:24:54.126Z" agent="Mozilla/5.0 (Windows NT 10.0; Win64; x64) AppleWebKit/537.36 (KHTML, like Gecko) Chrome/111.0.0.0 Safari/537.36" etag="_TfGRo7G12Q207XXypAO" version="21.1.7" type="device">
  <diagram id="OEtE0UqRGMGyEYrEScfP" name="Pagina-1">
    <mxGraphModel dx="1050" dy="581" grid="1" gridSize="10" guides="1" tooltips="1" connect="1" arrows="1" fold="1" page="1" pageScale="1" pageWidth="827" pageHeight="1169" math="0" shadow="0">
      <root>
        <mxCell id="0" />
        <mxCell id="1" parent="0" />
        <mxCell id="-BUbELkkfaWMpww8tzWN-6" style="edgeStyle=orthogonalEdgeStyle;rounded=0;orthogonalLoop=1;jettySize=auto;html=1;exitX=0.5;exitY=1;exitDx=0;exitDy=0;entryX=0.5;entryY=0;entryDx=0;entryDy=0;" edge="1" parent="1" source="-BUbELkkfaWMpww8tzWN-1" target="-BUbELkkfaWMpww8tzWN-3">
          <mxGeometry relative="1" as="geometry" />
        </mxCell>
        <mxCell id="-BUbELkkfaWMpww8tzWN-1" value="START" style="rounded=1;whiteSpace=wrap;html=1;arcSize=50;fillColor=#f5f5f5;fontColor=#333333;strokeColor=#666666;" vertex="1" parent="1">
          <mxGeometry x="280" y="80" width="120" height="60" as="geometry" />
        </mxCell>
        <mxCell id="-BUbELkkfaWMpww8tzWN-12" style="edgeStyle=orthogonalEdgeStyle;rounded=0;orthogonalLoop=1;jettySize=auto;html=1;exitX=0.5;exitY=1;exitDx=0;exitDy=0;entryX=0.5;entryY=0;entryDx=0;entryDy=0;" edge="1" parent="1" source="-BUbELkkfaWMpww8tzWN-3" target="-BUbELkkfaWMpww8tzWN-11">
          <mxGeometry relative="1" as="geometry" />
        </mxCell>
        <mxCell id="-BUbELkkfaWMpww8tzWN-3" value="Array = [&quot;Cat&quot;, &quot;Dog&quot;]&lt;br&gt;Index = 0&lt;br&gt;Result_Array = [ ]&lt;br&gt;Result_Index = 0" style="rounded=1;whiteSpace=wrap;html=1;" vertex="1" parent="1">
          <mxGeometry x="240" y="170" width="200" height="60" as="geometry" />
        </mxCell>
        <mxCell id="-BUbELkkfaWMpww8tzWN-13" style="edgeStyle=orthogonalEdgeStyle;rounded=0;orthogonalLoop=1;jettySize=auto;html=1;exitX=1;exitY=0.5;exitDx=0;exitDy=0;entryX=0;entryY=0.5;entryDx=0;entryDy=0;" edge="1" parent="1" source="-BUbELkkfaWMpww8tzWN-11" target="-BUbELkkfaWMpww8tzWN-14">
          <mxGeometry relative="1" as="geometry">
            <mxPoint x="540" y="300" as="targetPoint" />
            <Array as="points" />
          </mxGeometry>
        </mxCell>
        <mxCell id="-BUbELkkfaWMpww8tzWN-15" value="No" style="edgeLabel;html=1;align=center;verticalAlign=middle;resizable=0;points=[];" vertex="1" connectable="0" parent="-BUbELkkfaWMpww8tzWN-13">
          <mxGeometry x="-0.2073" y="2" relative="1" as="geometry">
            <mxPoint x="6" y="2" as="offset" />
          </mxGeometry>
        </mxCell>
        <mxCell id="-BUbELkkfaWMpww8tzWN-17" style="edgeStyle=orthogonalEdgeStyle;rounded=0;orthogonalLoop=1;jettySize=auto;html=1;exitX=0.5;exitY=1;exitDx=0;exitDy=0;" edge="1" parent="1" source="-BUbELkkfaWMpww8tzWN-11" target="-BUbELkkfaWMpww8tzWN-20">
          <mxGeometry relative="1" as="geometry">
            <mxPoint x="340" y="480" as="targetPoint" />
            <Array as="points" />
          </mxGeometry>
        </mxCell>
        <mxCell id="-BUbELkkfaWMpww8tzWN-19" value="Yes" style="edgeLabel;html=1;align=center;verticalAlign=middle;resizable=0;points=[];" vertex="1" connectable="0" parent="-BUbELkkfaWMpww8tzWN-17">
          <mxGeometry x="0.268" relative="1" as="geometry">
            <mxPoint y="-69" as="offset" />
          </mxGeometry>
        </mxCell>
        <mxCell id="-BUbELkkfaWMpww8tzWN-11" value="Index &amp;lt; Array.lenght" style="rhombus;whiteSpace=wrap;html=1;" vertex="1" parent="1">
          <mxGeometry x="240" y="260" width="200" height="80" as="geometry" />
        </mxCell>
        <mxCell id="-BUbELkkfaWMpww8tzWN-33" style="edgeStyle=orthogonalEdgeStyle;rounded=0;orthogonalLoop=1;jettySize=auto;html=1;entryX=0.5;entryY=1;entryDx=0;entryDy=0;" edge="1" parent="1" source="-BUbELkkfaWMpww8tzWN-14" target="-BUbELkkfaWMpww8tzWN-32">
          <mxGeometry relative="1" as="geometry" />
        </mxCell>
        <mxCell id="-BUbELkkfaWMpww8tzWN-14" value="print(Result_Array)" style="rounded=0;whiteSpace=wrap;html=1;" vertex="1" parent="1">
          <mxGeometry x="470" y="270" width="120" height="60" as="geometry" />
        </mxCell>
        <mxCell id="-BUbELkkfaWMpww8tzWN-21" style="edgeStyle=orthogonalEdgeStyle;rounded=0;orthogonalLoop=1;jettySize=auto;html=1;exitX=1;exitY=0.5;exitDx=0;exitDy=0;entryX=1;entryY=0.5;entryDx=0;entryDy=0;" edge="1" parent="1" source="-BUbELkkfaWMpww8tzWN-20" target="-BUbELkkfaWMpww8tzWN-26">
          <mxGeometry relative="1" as="geometry">
            <mxPoint x="560" y="520" as="targetPoint" />
            <Array as="points">
              <mxPoint x="520" y="420" />
              <mxPoint x="520" y="630" />
            </Array>
          </mxGeometry>
        </mxCell>
        <mxCell id="-BUbELkkfaWMpww8tzWN-28" value="No" style="edgeLabel;html=1;align=center;verticalAlign=middle;resizable=0;points=[];" vertex="1" connectable="0" parent="-BUbELkkfaWMpww8tzWN-21">
          <mxGeometry x="0.692" y="-2" relative="1" as="geometry">
            <mxPoint as="offset" />
          </mxGeometry>
        </mxCell>
        <mxCell id="-BUbELkkfaWMpww8tzWN-35" value="" style="edgeStyle=orthogonalEdgeStyle;rounded=0;orthogonalLoop=1;jettySize=auto;html=1;" edge="1" parent="1" source="-BUbELkkfaWMpww8tzWN-20" target="-BUbELkkfaWMpww8tzWN-30">
          <mxGeometry relative="1" as="geometry" />
        </mxCell>
        <mxCell id="-BUbELkkfaWMpww8tzWN-20" value="Array[Index].lenght &amp;lt;=3" style="rhombus;whiteSpace=wrap;html=1;" vertex="1" parent="1">
          <mxGeometry x="240" y="380" width="200" height="80" as="geometry" />
        </mxCell>
        <mxCell id="-BUbELkkfaWMpww8tzWN-27" style="edgeStyle=orthogonalEdgeStyle;rounded=0;orthogonalLoop=1;jettySize=auto;html=1;exitX=0;exitY=0.5;exitDx=0;exitDy=0;entryX=0;entryY=0.5;entryDx=0;entryDy=0;" edge="1" parent="1" source="-BUbELkkfaWMpww8tzWN-26" target="-BUbELkkfaWMpww8tzWN-11">
          <mxGeometry relative="1" as="geometry">
            <Array as="points">
              <mxPoint x="190" y="630" />
              <mxPoint x="190" y="300" />
            </Array>
          </mxGeometry>
        </mxCell>
        <mxCell id="-BUbELkkfaWMpww8tzWN-26" value="Index = Index + 1" style="rounded=1;whiteSpace=wrap;html=1;" vertex="1" parent="1">
          <mxGeometry x="280" y="600" width="120" height="60" as="geometry" />
        </mxCell>
        <mxCell id="-BUbELkkfaWMpww8tzWN-38" value="" style="edgeStyle=orthogonalEdgeStyle;rounded=0;orthogonalLoop=1;jettySize=auto;html=1;" edge="1" parent="1" source="-BUbELkkfaWMpww8tzWN-30" target="-BUbELkkfaWMpww8tzWN-26">
          <mxGeometry relative="1" as="geometry" />
        </mxCell>
        <mxCell id="-BUbELkkfaWMpww8tzWN-30" value="&lt;span style=&quot;color: rgb(0, 0, 0); font-family: Helvetica; font-size: 12px; font-style: normal; font-variant-ligatures: normal; font-variant-caps: normal; font-weight: 400; letter-spacing: normal; orphans: 2; text-align: center; text-indent: 0px; text-transform: none; widows: 2; word-spacing: 0px; -webkit-text-stroke-width: 0px; background-color: rgb(251, 251, 251); text-decoration-thickness: initial; text-decoration-style: initial; text-decoration-color: initial; float: none; display: inline !important;&quot;&gt;Result_Array[Result_Index] = Array[Index]&lt;br&gt;&lt;/span&gt;Result_Index = Result_Index + 1" style="rounded=1;whiteSpace=wrap;html=1;" vertex="1" parent="1">
          <mxGeometry x="240" y="490" width="200" height="70" as="geometry" />
        </mxCell>
        <mxCell id="-BUbELkkfaWMpww8tzWN-32" value="STOP" style="rounded=1;whiteSpace=wrap;html=1;arcSize=50;fillColor=#f5f5f5;fontColor=#333333;strokeColor=#666666;" vertex="1" parent="1">
          <mxGeometry x="470" y="80" width="120" height="60" as="geometry" />
        </mxCell>
        <mxCell id="-BUbELkkfaWMpww8tzWN-34" value="Yes" style="text;html=1;strokeColor=none;fillColor=none;align=center;verticalAlign=middle;whiteSpace=wrap;rounded=0;" vertex="1" parent="1">
          <mxGeometry x="330" y="340" width="60" height="30" as="geometry" />
        </mxCell>
        <mxCell id="-BUbELkkfaWMpww8tzWN-36" value="Yes" style="text;html=1;strokeColor=none;fillColor=none;align=center;verticalAlign=middle;whiteSpace=wrap;rounded=0;" vertex="1" parent="1">
          <mxGeometry x="330" y="460" width="60" height="30" as="geometry" />
        </mxCell>
      </root>
    </mxGraphModel>
  </diagram>
</mxfile>
